<svg width="31" height="19" viewBox="0 0 31 19" fill="none" xmlns="http://www.w3.org/2000/svg">
<path d="M0.0833319 1.74366C0.0833319 1.03325 0.770917 0.458454 1.61729 0.458453L13.966 0.458452C14.3729 0.458452 14.763 0.593859 15.0507 0.834882C15.3384 1.07591 15.5 1.4028 15.5 1.74366C15.5 2.08452 15.3384 2.41142 15.0507 2.65244C14.763 2.89347 14.3729 3.02887 13.966 3.02887L1.61729 3.02887C0.769376 3.02887 0.083332 2.45408 0.0833319 1.74366Z" fill="white"/>
<path d="M0.0831927 9.50007C0.0831927 8.78966 0.770777 8.21487 1.61715 8.21487L29.3826 8.21486C29.7894 8.21486 30.1796 8.35027 30.4672 8.59129C30.7549 8.83231 30.9165 9.15921 30.9165 9.50007C30.9165 9.84093 30.7549 10.1678 30.4672 10.4088C30.1796 10.6499 29.7894 10.7853 29.3826 10.7853L1.61715 10.7853C0.769236 10.7853 0.0831928 10.2092 0.0831927 9.50007Z" fill="white"/>
<path d="M1.61716 15.9713C1.21033 15.9713 0.820158 16.1067 0.532486 16.3477C0.244812 16.5887 0.0831984 16.9156 0.0831984 17.2565C0.0831985 17.5973 0.244812 17.9242 0.532486 18.1653C0.820158 18.4063 1.21033 18.5417 1.61716 18.5417L20.1326 18.5417C20.334 18.5417 20.5335 18.5084 20.7196 18.4439C20.9057 18.3793 21.0748 18.2846 21.2172 18.1653C21.3597 18.0459 21.4727 17.9042 21.5498 17.7483C21.6269 17.5924 21.6665 17.4253 21.6665 17.2565C21.6665 17.0877 21.6269 16.9206 21.5498 16.7647C21.4727 16.6087 21.3597 16.467 21.2172 16.3477C21.0748 16.2284 20.9057 16.1337 20.7196 16.0691C20.5335 16.0045 20.334 15.9713 20.1326 15.9713L1.61716 15.9713Z" fill="white"/>
</svg>
